<!-- Generator: Adobe Illustrator 23.0.1, SVG Export Plug-In  -->
<svg version="1.1" xmlns="http://www.w3.org/2000/svg" xmlns:xlink="http://www.w3.org/1999/xlink" x="0px" y="0px"
	 width="283.465px" height="49.606px" viewBox="0 0 283.465 49.606" style="enable-background:new 0 0 283.465 49.606;"
	 xml:space="preserve">
<style type="text/css">
	.st0{fill:#F48120;}
	.st1{fill:#FAAF40;}
	.st2{fill:#3E484E;}
</style>
<defs>
</defs>
<g>
	<g>
		<path class="st0" d="M72.347,37.723L52.852,3.957C52.686,3.67,52.5,3.402,52.305,3.144c-0.01-0.013-0.02-0.025-0.03-0.037
			c-0.144-0.187-0.292-0.369-0.45-0.54c-0.043-0.047-0.089-0.09-0.133-0.135c-0.13-0.135-0.261-0.268-0.4-0.393
			c-0.088-0.079-0.182-0.153-0.274-0.228c-0.102-0.084-0.202-0.169-0.308-0.247c-0.13-0.097-0.268-0.186-0.406-0.276
			c-0.074-0.048-0.147-0.098-0.222-0.144c-0.046-0.028-0.088-0.06-0.135-0.087c-0.127-0.073-0.258-0.133-0.388-0.198
			c-0.045-0.023-0.09-0.047-0.135-0.069c-0.204-0.098-0.41-0.186-0.619-0.265c-0.022-0.008-0.044-0.018-0.066-0.026
			c-0.22-0.081-0.442-0.152-0.665-0.213c-0.021-0.006-0.042-0.012-0.063-0.017c-0.214-0.056-0.429-0.103-0.646-0.141
			c-0.045-0.008-0.09-0.016-0.135-0.023c-0.186-0.029-0.372-0.051-0.558-0.067c-0.089-0.008-0.177-0.015-0.266-0.019
			c-0.14-0.007-0.28-0.01-0.421-0.01c-0.14,0-0.28,0.003-0.421,0.01c-0.089,0.005-0.177,0.012-0.266,0.019
			c-0.187,0.016-0.372,0.038-0.558,0.067c-0.045,0.007-0.09,0.015-0.135,0.023c-0.216,0.038-0.431,0.084-0.645,0.141
			c-0.021,0.006-0.042,0.012-0.063,0.017c-0.224,0.061-0.445,0.131-0.665,0.213c-0.022,0.008-0.044,0.017-0.066,0.026
			c-0.209,0.079-0.415,0.167-0.619,0.265c-0.045,0.022-0.09,0.046-0.135,0.069c-0.13,0.066-0.261,0.125-0.388,0.199
			c-0.047,0.027-0.089,0.059-0.135,0.087c-0.075,0.045-0.147,0.096-0.221,0.143c-0.138,0.09-0.276,0.179-0.407,0.276
			c-0.105,0.078-0.206,0.163-0.307,0.247c-0.092,0.076-0.187,0.15-0.275,0.229c-0.138,0.124-0.269,0.257-0.399,0.392
			c-0.044,0.046-0.091,0.09-0.134,0.137c-0.158,0.171-0.306,0.353-0.45,0.54c-0.01,0.013-0.021,0.025-0.03,0.037
			c-0.195,0.258-0.381,0.526-0.547,0.813L19.625,37.723c-2.18,3.775-0.874,8.648,2.901,10.828h0
			c3.775,2.18,8.648,0.874,10.827-2.901l12.632-21.88l12.632,21.88c2.18,3.776,7.052,5.081,10.827,2.901h0
			C73.221,46.371,74.526,41.498,72.347,37.723z"/>
		<g>
			<g>
				<g>
					<path class="st1" d="M15.32,36.59L1.056,11.883c-2.18-3.775-0.874-8.648,2.901-10.827c3.775-2.18,8.648-0.874,10.827,2.901
						l9.688,16.78L15.32,36.59z"/>
				</g>
			</g>
			<g>
				<g>
					<path class="st1" d="M76.651,36.59l14.264-24.707c2.18-3.775,0.874-8.648-2.901-10.827c-3.775-2.18-8.648-0.874-10.827,2.901
						l-9.688,16.78L76.651,36.59z"/>
				</g>
			</g>
		</g>
		<circle class="st0" cx="45.986" cy="43.89" r="5.717"/>
	</g>
	<path class="st2" d="M136.431,5.692l-6.119,18.874h-5.717l-3.614-11.486l-3.774,11.486h-5.717L105.37,5.692h5.502l3.802,12.053
		l3.989-12.053h4.907l3.802,12.16l3.963-12.16H136.431z"/>
	<path class="st2" d="M174.449,19.39c0,3.262-2.696,5.177-7.765,5.177h-10.191V5.692h9.651c4.962,0,7.388,2.022,7.388,4.934
		c0,1.807-0.915,3.262-2.534,4.099C173.127,15.48,174.449,17.098,174.449,19.39z M161.777,9.549v3.64h3.666
		c1.78,0,2.696-0.62,2.696-1.834c0-1.186-0.915-1.806-2.696-1.806H161.777z M169.057,18.797c0-1.294-0.97-1.914-2.804-1.914h-4.476
		v3.829h4.476C168.087,20.711,169.057,20.091,169.057,18.797z"/>
	<path class="st2" d="M203.044,5.692v18.874h-5.339v-7.361h-7.28v7.361h-5.337V5.692h5.337v7.091h7.28V5.692H203.044z"/>
	<path class="st2" d="M205.861,15.129c0-5.662,4.448-9.815,10.488-9.815s10.488,4.153,10.488,9.815s-4.448,9.815-10.488,9.815
		S205.861,20.791,205.861,15.129z M221.444,15.129c0-3.262-2.237-5.392-5.096-5.392c-2.858,0-5.096,2.13-5.096,5.392
		s2.237,5.393,5.096,5.393C219.207,20.523,221.444,18.392,221.444,15.129z"/>
	<path class="st2" d="M229.492,16.154V5.692h5.339v10.3c0,3.236,1.348,4.53,3.585,4.53c2.211,0,3.559-1.294,3.559-4.53v-10.3h5.258
		v10.461c0,5.636-3.289,8.79-8.869,8.79C232.781,24.944,229.492,21.789,229.492,16.154z"/>
	<path class="st2" d="M249.537,22.868l1.752-3.937c1.673,1.106,4.044,1.861,6.228,1.861c2.211,0,3.074-0.62,3.074-1.537
		c0-2.992-10.731-0.809-10.731-7.819c0-3.37,2.751-6.121,8.358-6.121c2.454,0,4.99,0.566,6.85,1.645l-1.644,3.963
		c-1.807-0.97-3.587-1.456-5.232-1.456c-2.237,0-3.047,0.755-3.047,1.698c0,2.886,10.705,0.729,10.705,7.685
		c0,3.289-2.751,6.093-8.358,6.093C254.391,24.944,251.315,24.108,249.537,22.868z"/>
	<g>
		<g>
			<path class="st2" d="M121.773,32.333v11.958h-1.401l-7.175-8.918v8.918h-1.708V32.333h1.401l7.175,8.918v-8.918H121.773z"/>
			<path class="st2" d="M138.32,42.805v1.486h-8.678V32.333h8.439v1.486h-6.731v3.673h5.996v1.451h-5.996v3.862H138.32z"/>
			<path class="st2" d="M155.019,36.502c0,2.597-1.879,4.167-4.988,4.167h-2.955v3.622h-1.708V32.333h4.663
				C153.139,32.333,155.019,33.905,155.019,36.502z M153.311,36.502c0-1.708-1.144-2.683-3.33-2.683h-2.905v5.363h2.905
				C152.167,39.183,153.311,38.21,153.311,36.502z"/>
			<path class="st2" d="M168.83,41.301h-6.354l-1.315,2.99h-1.761l5.416-11.958h1.69l5.434,11.958h-1.794L168.83,41.301z
				 M168.233,39.936l-2.58-5.86l-2.58,5.86H168.233z"/>
			<path class="st2" d="M177.996,32.333h1.708v10.472h6.474v1.486h-8.182V32.333z"/>
		</g>
	</g>
	<g>
		<polygon class="st2" points="138.365,13.644 138.365,17.202 138.365,20.422 138.365,23.989 138.365,24.566 153.518,24.566 
			153.518,20.422 142.509,20.422 142.509,17.202 153.518,17.202 153.518,13.057 138.365,13.057 		"/>
		<rect x="138.365" y="5.692" class="st2" width="15.153" height="4.144"/>
	</g>
	<g>
		<polygon class="st2" points="268.312,13.644 268.312,17.202 268.312,20.422 268.312,23.989 268.312,24.566 283.465,24.566 
			283.465,20.422 272.456,20.422 272.456,17.202 283.465,17.202 283.465,13.057 268.312,13.057 		"/>
		<rect x="268.312" y="5.692" class="st2" width="15.153" height="4.144"/>
	</g>
</g>
</svg>